<mxfile host="app.diagrams.net" modified="2024-01-16T17:18:11.956Z" agent="Mozilla/5.0 (Windows NT 10.0; Win64; x64) AppleWebKit/537.36 (KHTML, like Gecko) Chrome/120.0.0.0 Safari/537.36" version="21.7.2" etag="DgpK2ri9blfGfW328k73" type="github">
  <diagram name="Page-1" id="FhG82xlXqXKCb6TLVB3E">
    <mxGraphModel>
      <root>
        <mxCell id="0" />
        <mxCell id="1" parent="0" />
      </root>
    </mxGraphModel>
  </diagram>
</mxfile>
